<svg width="24" height="24" viewBox="0 0 24 24" fill="none" xmlns="http://www.w3.org/2000/svg">
<path fill-rule="evenodd" clip-rule="evenodd" d="M1.35999 3.36C1.35999 2.91817 1.71816 2.56 2.15999 2.56H5.57999C5.8563 2.56 6.11305 2.70259 6.2591 2.93715L8.2391 6.11715C8.31811 6.24404 8.35999 6.39052 8.35999 6.54V13.98C8.35999 14.5582 8.84181 15.04 9.41998 15.04H18.72C19.2198 15.04 19.6836 14.6688 19.7944 14.1288L20.933 7.89622C20.9345 7.88825 20.936 7.8803 20.9377 7.87237C20.9987 7.58801 20.7913 7.28 20.4 7.28H11.76C11.3182 7.28 10.96 6.92183 10.96 6.48C10.96 6.03817 11.3182 5.68 11.76 5.68H20.4C21.6846 5.68 22.7943 6.80485 22.505 8.19441L21.367 14.4238L21.3646 14.4369L21.3644 14.4369C21.1131 15.6938 20.0184 16.64 18.72 16.64H9.41998C7.95816 16.64 6.75998 15.4418 6.75998 13.98V6.7687L5.1357 4.16H2.15999C1.71816 4.16 1.35999 3.80183 1.35999 3.36ZM10.56 20.64C11.3884 20.64 12.06 19.9684 12.06 19.14C12.06 18.3116 11.3884 17.64 10.56 17.64C9.73156 17.64 9.05999 18.3116 9.05999 19.14C9.05999 19.9684 9.73156 20.64 10.56 20.64ZM19.26 19.14C19.26 19.9684 18.5884 20.64 17.76 20.64C16.9316 20.64 16.26 19.9684 16.26 19.14C16.26 18.3116 16.9316 17.64 17.76 17.64C18.5884 17.64 19.26 18.3116 19.26 19.14Z" fill="#13171C"/>
</svg>
