<svg width="153" height="31" viewBox="0 0 153 31" fill="none" xmlns="http://www.w3.org/2000/svg">
<path d="M44.4695 17.8322H38.7665L41.0088 10.8802L27.8092 9.56754L23.2667 21.763H15.1401V8.3089L0 6.80199V30.6053H34.6361L36.2956 25.4748H46.8799L48.5 30.6053H77.0419L79.6436 30.5955L82.3537 30.6053H89.5954L92.1436 30.5955L94.9074 30.6176H123.087L124.741 25.4873H135.336L136.956 30.6176H152.144L151.458 29.2704L148.554 21.5835L112.938 18.0387L108.682 29.6342L106.844 17.4315L65.583 13.3262L63.2778 29.3614L56.8683 12.4609L42.3139 11.013L44.4695 17.8322Z" fill="#BE3D3D"/>
<path d="M41.6416 8.88167L41.8596 9.56507V9.56015L56.2486 10.8163L55.1168 7.8148L29.0776 6.12843L28.2399 8.3802L41.4343 9.53067L41.6416 8.88167Z" fill="#BE3D3D"/>
<path d="M30.2039 3.10232L29.4713 5.06893V5.0763L54.5602 6.37427L53.6045 3.857L30.2039 3.10232Z" fill="#BE3D3D"/>
<path d="M31.3566 0L30.6109 2.00348L53.0821 2.47054L52.1446 0H31.3566Z" fill="#BE3D3D"/>
<path d="M0 4.24542V5.91457V5.91702L15.1401 7.2371V5.22872L0 4.24542Z" fill="#BE3D3D"/>
<path d="M0 2.12147V3.54235V3.54973L15.1401 4.33391V2.61312L0 2.12147Z" fill="#BE3D3D"/>
<path d="M0 0V1.36679L15.1401 1.68145V0H0Z" fill="#BE3D3D"/>
<path d="M65.8223 11.6558L65.8221 11.657L65.8089 11.6546L65.8223 11.6558L66.2711 8.53507L85.3023 9.76419L86.0219 12.3601L86.6574 9.85268L105.893 11.0966L106.508 15.2043L65.8223 11.6558Z" fill="#BE3D3D"/>
<path d="M66.8829 4.28227L66.4942 6.98637H66.4863L84.7878 7.93524L83.9344 4.83293L66.8829 4.28227Z" fill="#BE3D3D"/>
<path d="M67.4972 0L67.1008 2.76307L83.4539 3.10232L82.5926 0H67.4972Z" fill="#BE3D3D"/>
<path d="M87.8993 4.95585L87.1115 8.05571H87.1169L105.586 9.01196L105.061 5.50896L87.8993 4.95585Z" fill="#BE3D3D"/>
<path d="M89.1492 0L88.3377 3.19573L104.743 3.5448L104.218 0H89.1492Z" fill="#BE3D3D"/>
<path d="M115.246 11.7062L113.736 15.8312V15.8385L127.461 17.0357L128.9 12.5887L115.246 11.7062Z" fill="#BE3D3D"/>
<path d="M117.381 5.89981L116.034 9.55278L129.646 10.2509L130.09 8.8743L130.539 10.2976L144.565 11.0228L142.943 6.72334L117.381 5.89981Z" fill="#BE3D3D"/>
<path d="M119.55 0L118.135 3.82505V3.82997L142.029 4.32162L140.398 0H119.55Z" fill="#BE3D3D"/>
<path d="M145.556 13.6675L145.553 13.6581L145.563 13.6679L145.556 13.6675L147.485 18.7737L132.81 17.5028L131.308 12.7461L145.556 13.6675Z" fill="#BE3D3D"/>
</svg>
