<svg width="27" height="27" viewBox="0 0 27 27" fill="none" xmlns="http://www.w3.org/2000/svg">
<path d="M24.8181 13.9174L12.7338 25.1394C11.987 25.8329 8.91724 23.7526 5.8911 20.4939C2.86496 17.2352 1.01723 14.0201 1.76402 13.3266L13.8484 2.10464C14.5952 1.41115 17.6649 3.49145 20.6911 6.75015C23.7172 10.0089 25.5649 13.224 24.8181 13.9174Z" stroke="#BE3D3D" stroke-width="1.4" stroke-miterlimit="10" stroke-linecap="round" stroke-linejoin="round"/>
<path d="M24.8181 13.9174C24.5737 14.1444 24.0781 14.0736 23.4079 13.7604C22.0549 13.1203 20.0055 11.458 17.9755 9.27193C15.9454 7.08589 14.4391 4.91922 13.9008 3.52261C13.6379 2.83109 13.604 2.3316 13.8484 2.10464C14.5952 1.41115 17.6649 3.49145 20.6911 6.75015C23.7172 10.0089 25.5649 13.224 24.8181 13.9174Z" stroke="#BE3D3D" stroke-width="1.4" stroke-miterlimit="10" stroke-linecap="round" stroke-linejoin="round"/>
</svg>
