<svg width="26" height="28" viewBox="0 0 26 28" fill="none" xmlns="http://www.w3.org/2000/svg">
<path d="M16.0313 15.1685H9.22912C6.38376 15.1685 4.0719 12.8567 4.0719 10.0113V7.14371C4.0719 3.85376 6.73943 1.164 10.0516 1.164H15.2311C18.521 1.164 21.2108 3.83153 21.2108 7.14371V10.0113C21.1885 12.8567 18.8767 15.1685 16.0313 15.1685Z" stroke="#BE3D3D" stroke-width="1.4" stroke-miterlimit="10" stroke-linecap="round" stroke-linejoin="round"/>
<path d="M16.0313 15.1685H9.22912C6.38376 15.1685 4.0719 12.8567 4.0719 10.0113V8.2774H21.1885V10.0113C21.1885 12.8567 18.8767 15.1685 16.0313 15.1685Z" stroke="#BE3D3D" stroke-width="1.4" stroke-miterlimit="10" stroke-linecap="round" stroke-linejoin="round"/>
<path d="M16.1875 15.1685H9.29523V17.836H16.1875V15.1685Z" stroke="#BE3D3D" stroke-width="1.4" stroke-miterlimit="10" stroke-linecap="round" stroke-linejoin="round"/>
<path d="M1.61855 15.5235C1.61855 15.5235 0.573549 17.7114 2.34551 19.8745C4.11747 22.0375 6.7527 21.6148 6.7527 21.6148C6.7527 21.6148 6.77542 26.836 12.9546 26.836H13.0454C19.2473 26.836 19.2473 21.6148 19.2473 21.6148C19.2473 21.6148 21.8825 22.0624 23.6545 19.8745C25.4265 17.6865 24.3814 15.5235 24.3814 15.5235" stroke="#BE3D3D" stroke-width="1.4" stroke-miterlimit="10" stroke-linecap="round" stroke-linejoin="round"/>
</svg>
