<svg width="29" height="28" viewBox="0 0 29 28" fill="none" xmlns="http://www.w3.org/2000/svg">
<path d="M28.1358 4.51446V7.4711C28.1358 10.9567 25.3092 13.7832 21.8237 13.7832H20.341C17.8786 11.1561 15.2861 10.3226 14.9046 10.0625C14.5391 10.3203 11.1763 11.5896 9.19941 13.7832H8.00287C4.51732 13.7832 1.69073 10.9567 1.69073 7.4711V4.50579C1.69073 3.60405 2.34102 2.83238 3.23409 2.67631C7.09247 2.01735 10.9942 1.68787 14.9046 1.68787C18.763 1.68787 22.6127 2.00868 26.4277 2.65896L26.5925 2.68498C27.4855 2.83237 28.1358 3.60405 28.1358 4.51446Z" stroke="#BE3D3D" stroke-width="1.4" stroke-miterlimit="10" stroke-linecap="round" stroke-linejoin="round"/>
<path d="M8.8699 22.922C8.8699 23.0954 8.86123 23.2601 8.84389 23.4249V23.4335C8.82655 23.5983 8.80921 23.7543 8.78319 23.9104C8.75718 24.0491 8.73117 24.1879 8.70516 24.3179C8.69649 24.3439 8.68782 24.3786 8.68782 24.4046C8.67915 24.4393 8.67048 24.474 8.66181 24.5C8.65314 24.526 8.64447 24.5607 8.6358 24.5867C8.62712 24.6214 8.61845 24.6561 8.60111 24.6907C8.5751 24.7601 8.55776 24.8295 8.53175 24.8988C8.24562 25.6792 7.77741 26.2775 7.14447 26.5723C7.08377 26.5983 7.03175 26.6243 6.97106 26.6416C5.32366 27.2225 3.23406 25.4971 2.27163 22.5838C1.28319 19.6012 1.90747 16.6705 3.60689 15.9855C3.66759 15.9595 3.72828 15.9422 3.78897 15.9249C4.47395 15.7254 5.21961 15.9075 5.91325 16.3757C5.94793 16.4017 5.98262 16.4191 6.0173 16.4451C6.03464 16.4624 6.06065 16.4711 6.07799 16.4884C6.09533 16.5058 6.12134 16.5144 6.13869 16.5318C6.17337 16.5578 6.20805 16.5838 6.24273 16.6185L6.2514 16.6272C6.28608 16.6532 6.32077 16.6879 6.35545 16.7139C6.39013 16.7486 6.42481 16.7746 6.45949 16.8092C6.49418 16.8353 6.52019 16.8699 6.55487 16.896C6.56354 16.9046 6.56354 16.9046 6.57221 16.9133C6.60689 16.948 6.63291 16.974 6.66759 17.0087C6.70227 17.0434 6.73695 17.078 6.77163 17.1127C6.79764 17.1474 6.83233 17.1734 6.85834 17.2081C7.00574 17.3728 7.15314 17.5549 7.28319 17.7457C7.30921 17.7803 7.32655 17.8064 7.35256 17.841C7.38724 17.8931 7.42192 17.9364 7.4566 17.9884C7.48262 18.0318 7.50863 18.0665 7.53464 18.1098C7.56065 18.1532 7.58666 18.1879 7.604 18.2312C7.63001 18.2746 7.65603 18.3092 7.67337 18.3526C7.69938 18.396 7.71672 18.4306 7.74273 18.474C7.78608 18.552 7.82944 18.6387 7.88146 18.7254C7.90747 18.7688 7.92481 18.8121 7.94215 18.8555C7.96817 18.8988 7.98551 18.9422 8.00285 18.9855C8.02019 19.0289 8.0462 19.0723 8.06354 19.1156C8.08088 19.159 8.10689 19.2023 8.12423 19.2543C8.14158 19.2977 8.15892 19.341 8.17626 19.3844C8.17626 19.3931 8.17626 19.3931 8.18493 19.4017C8.20227 19.4451 8.21961 19.4884 8.23695 19.5318C8.25429 19.5751 8.27163 19.6185 8.28897 19.6618C8.28897 19.6705 8.29764 19.6792 8.29764 19.6879C8.31499 19.7312 8.32366 19.7659 8.341 19.8092C8.39302 19.9566 8.43637 20.104 8.4884 20.2514C8.5751 20.5289 8.64447 20.7977 8.69649 21.0751C8.73117 21.2399 8.75718 21.396 8.78319 21.5607C8.79186 21.6127 8.80054 21.6647 8.80921 21.7168C8.82655 21.8555 8.84389 21.9942 8.85256 22.1329C8.86123 22.3931 8.8699 22.6618 8.8699 22.922Z" stroke="#BE3D3D" stroke-width="1.4" stroke-miterlimit="10" stroke-linecap="round" stroke-linejoin="round"/>
<path d="M10.0838 25.1936C10.0404 25.2283 9.98842 25.263 9.9364 25.2977C9.91906 25.3064 9.90172 25.315 9.88437 25.3237C9.83235 25.3584 9.78033 25.3844 9.71963 25.4104L7.13582 26.5636C7.7601 26.2775 8.22831 25.6792 8.5231 24.8902C8.54044 24.8468 8.54911 24.8121 8.56646 24.7688C8.57513 24.7428 8.5838 24.7081 8.59247 24.6821C8.60114 24.6474 8.61848 24.6127 8.62715 24.578C8.63582 24.552 8.64449 24.526 8.65316 24.4913C8.66183 24.4566 8.6705 24.4306 8.67917 24.396C8.68784 24.3699 8.69651 24.3439 8.69651 24.3092C8.7312 24.1792 8.75721 24.0405 8.77455 23.9017C8.80056 23.7457 8.8179 23.5896 8.83524 23.4249V23.4162C8.85258 23.2514 8.86125 23.0867 8.86125 22.9133C8.86992 22.6532 8.85258 22.3844 8.83524 22.1156C8.82657 21.9769 8.80923 21.8381 8.79189 21.6994C8.78322 21.6474 8.77455 21.5954 8.76588 21.5434C8.73987 21.3786 8.71385 21.2225 8.67917 21.0578C8.62715 20.789 8.55778 20.5116 8.47108 20.2341C8.42773 20.0867 8.3757 19.9393 8.32368 19.7919C8.30634 19.7486 8.29767 19.7139 8.28033 19.6705C8.28033 19.6618 8.27166 19.6532 8.27166 19.6445C8.25432 19.6012 8.23698 19.5578 8.21964 19.5145C8.20229 19.4711 8.18495 19.4277 8.16761 19.3844C8.16761 19.3844 8.16761 19.3757 8.15894 19.3757C8.1416 19.3324 8.12426 19.289 8.10692 19.2457C8.08958 19.2023 8.06357 19.159 8.04622 19.1069C8.02888 19.0636 8.00287 19.0202 7.98553 18.9769C7.96819 18.9335 7.94218 18.8902 7.92484 18.8468C7.89883 18.8035 7.88148 18.7601 7.85547 18.7168C7.81212 18.6301 7.76877 18.552 7.72541 18.4653C7.6994 18.422 7.68206 18.3786 7.65605 18.3439C7.63004 18.3006 7.6127 18.2659 7.58669 18.2225C7.56068 18.1792 7.54333 18.1445 7.51732 18.1012C7.49131 18.0578 7.4653 18.0231 7.43929 17.9798C7.40461 17.9277 7.36992 17.8757 7.33524 17.8324C7.30923 17.7977 7.29189 17.7717 7.26588 17.737C7.12715 17.5462 6.98842 17.3642 6.84102 17.1994C6.81501 17.1734 6.789 17.1474 6.76299 17.1127L6.75432 17.104C6.71963 17.0694 6.68495 17.0347 6.65027 17C6.61559 16.9653 6.58958 16.9306 6.55489 16.9046C6.54622 16.896 6.54622 16.896 6.53755 16.8873C6.50287 16.8526 6.47686 16.8266 6.44218 16.8006C6.4075 16.7659 6.37281 16.7312 6.33813 16.7052C6.30345 16.6792 6.26877 16.6445 6.23409 16.6185C6.23409 16.6185 6.22542 16.6185 6.22542 16.6098C6.19073 16.5838 6.15605 16.5491 6.12137 16.5231C6.10403 16.5058 6.07802 16.4971 6.06068 16.4798C6.04333 16.4624 6.01732 16.4538 5.99998 16.4364C5.9653 16.4104 5.93062 16.3844 5.89594 16.3671C5.25432 15.9335 4.57802 15.7428 3.94507 15.8728L6.66761 15.1965C6.74565 15.1705 6.82368 15.1532 6.91039 15.1445C7.24854 15.0925 7.59536 15.1445 7.94218 15.2919C7.96819 15.3006 7.98553 15.3092 8.01154 15.3179C9.20807 15.8382 10.3613 17.3902 10.9422 19.4017C11.6532 21.8555 11.2717 24.2919 10.0838 25.1936Z" stroke="#BE3D3D" stroke-width="1.4" stroke-miterlimit="10" stroke-linecap="round" stroke-linejoin="round"/>
<path d="M20.8266 22.922C20.8266 23.0954 20.8353 23.2601 20.8526 23.4249V23.4335C20.87 23.5983 20.8873 23.7543 20.9133 23.9104C20.9393 24.0491 20.9653 24.1879 20.9913 24.3179C21 24.3439 21.0087 24.3786 21.0087 24.4046C21.0174 24.4393 21.026 24.474 21.0347 24.5C21.0434 24.526 21.052 24.5607 21.0607 24.5867C21.0694 24.6214 21.078 24.6561 21.0954 24.6907C21.1214 24.7601 21.1387 24.8295 21.1648 24.8988C21.4509 25.6792 21.9191 26.2775 22.552 26.5723C22.6127 26.5983 22.6648 26.6243 22.7254 26.6416C24.3728 27.2225 26.4624 25.4971 27.4249 22.5838C28.4133 19.6012 27.789 16.6705 26.0896 15.9855C26.0289 15.9595 25.9682 15.9422 25.9075 15.9249C25.2226 15.7254 24.4769 15.9075 23.7832 16.3757C23.7486 16.4017 23.7139 16.4191 23.6792 16.4451C23.6619 16.4624 23.6358 16.4711 23.6185 16.4884C23.6012 16.5058 23.5752 16.5144 23.5578 16.5318C23.5231 16.5578 23.4884 16.5838 23.4538 16.6185L23.4451 16.6272C23.4104 16.6532 23.3757 16.6879 23.3411 16.7139C23.3064 16.7486 23.2717 16.7746 23.237 16.8092C23.2023 16.8353 23.1763 16.8699 23.1416 16.896C23.133 16.9046 23.133 16.9046 23.1243 16.9133C23.0896 16.948 23.0636 16.974 23.0289 17.0087C22.9942 17.0434 22.9595 17.078 22.9249 17.1127C22.8989 17.1474 22.8642 17.1734 22.8382 17.2081C22.6908 17.3728 22.5434 17.5549 22.4133 17.7457C22.3873 17.7803 22.37 17.8064 22.3439 17.841C22.3093 17.8931 22.2746 17.9364 22.2399 17.9884C22.2139 18.0318 22.1879 18.0665 22.1619 18.1098C22.1358 18.1532 22.1098 18.1879 22.0925 18.2312C22.0665 18.2746 22.0405 18.3092 22.0231 18.3526C21.9971 18.396 21.9798 18.4306 21.9538 18.474C21.9104 18.552 21.8671 18.6387 21.815 18.7254C21.789 18.7688 21.7717 18.8121 21.7543 18.8555C21.7283 18.8988 21.711 18.9422 21.6937 18.9855C21.6763 19.0289 21.6503 19.0723 21.633 19.1156C21.6156 19.159 21.5896 19.2023 21.5723 19.2543C21.5549 19.2977 21.5376 19.341 21.5202 19.3844C21.5202 19.3931 21.5202 19.3931 21.5116 19.4017C21.4942 19.4451 21.4769 19.4884 21.4595 19.5318C21.4422 19.5751 21.4249 19.6185 21.4075 19.6618C21.4075 19.6705 21.3989 19.6792 21.3989 19.6879C21.3815 19.7312 21.3728 19.7659 21.3555 19.8092C21.3035 19.9566 21.2601 20.104 21.2081 20.2514C21.1214 20.5289 21.052 20.7977 21 21.0751C20.9653 21.2399 20.9393 21.396 20.9133 21.5607C20.9046 21.6127 20.896 21.6647 20.8873 21.7168C20.87 21.8555 20.8526 21.9942 20.8439 22.1329C20.8353 22.3931 20.8266 22.6618 20.8266 22.922Z" stroke="#BE3D3D" stroke-width="1.4" stroke-miterlimit="10" stroke-linecap="round" stroke-linejoin="round"/>
<path d="M23.0115 15.1965L25.7341 15.8728C25.0925 15.7428 24.4162 15.9335 23.7832 16.3671C23.7485 16.3931 23.7139 16.4104 23.6792 16.4364C23.6618 16.4538 23.6358 16.4624 23.6185 16.4798C23.6011 16.4971 23.5751 16.5058 23.5578 16.5231C23.5231 16.5491 23.4884 16.5752 23.4537 16.6098L23.4451 16.6185C23.4104 16.6445 23.3757 16.6792 23.341 16.7052C23.3063 16.7312 23.2717 16.7659 23.237 16.8006C23.2023 16.8266 23.1763 16.8613 23.1416 16.8873C23.1329 16.896 23.1329 16.896 23.1243 16.9046C23.0896 16.9393 23.0636 16.9653 23.0289 17C23.0029 17.026 22.9855 17.0434 22.9595 17.0694C22.9422 17.0867 22.9335 17.0954 22.9248 17.1127C22.8988 17.1474 22.8728 17.1734 22.8381 17.2081C22.6907 17.3728 22.552 17.5549 22.4133 17.7457C22.3873 17.7804 22.3699 17.8064 22.3439 17.8411C22.3092 17.8931 22.2745 17.9364 22.2399 17.9885C22.2139 18.0318 22.1878 18.0665 22.1618 18.1098C22.1358 18.1532 22.1098 18.1879 22.0925 18.2312C22.0665 18.2659 22.0404 18.3093 22.0231 18.3526C21.9971 18.396 21.9797 18.4306 21.9537 18.474C21.9104 18.5607 21.8584 18.6387 21.815 18.7254C21.789 18.7688 21.7717 18.8122 21.7456 18.8555C21.7196 18.8989 21.7023 18.9422 21.685 18.9856C21.6676 19.0289 21.6416 19.0723 21.6243 19.1156C21.6069 19.159 21.5809 19.2023 21.5636 19.2543C21.5462 19.2977 21.5289 19.3411 21.5115 19.3844C21.5115 19.3844 21.5115 19.3931 21.5029 19.3931C21.4855 19.4364 21.4682 19.4798 21.4508 19.5231C21.4335 19.5665 21.4162 19.6098 21.3988 19.6532C21.3988 19.6619 21.3902 19.6705 21.3902 19.6792C21.3728 19.7226 21.3641 19.7572 21.3468 19.8006C21.2948 19.948 21.2514 20.0867 21.1994 20.2428C21.1127 20.5202 21.0433 20.789 20.9913 21.0665C20.9566 21.2312 20.9306 21.3873 20.9046 21.552C20.8959 21.6041 20.8873 21.6561 20.8786 21.7081C20.8613 21.8468 20.8439 21.9856 20.8352 22.1243C20.8092 22.3931 20.8006 22.6619 20.8092 22.922C20.8092 23.0954 20.8179 23.2601 20.8352 23.4249V23.4335C20.8526 23.5983 20.8699 23.7543 20.8959 23.9104C20.9219 24.0491 20.948 24.1879 20.974 24.3179C20.9826 24.3439 20.9913 24.3786 20.9913 24.4046C21 24.4393 21.0086 24.474 21.0173 24.5C21.026 24.526 21.0347 24.5607 21.0433 24.5867C21.0433 24.5954 21.052 24.6127 21.052 24.6214C21.0607 24.6474 21.0693 24.6648 21.078 24.6908C21.104 24.7601 21.1214 24.8295 21.1474 24.8989C21.4335 25.6792 21.9017 26.2775 22.5347 26.5723L19.9508 25.4191C19.8988 25.3931 19.8468 25.3671 19.7948 25.3324C19.7774 25.3237 19.7601 25.315 19.7428 25.3064C19.7428 25.3064 19.7341 25.3064 19.7341 25.2977C18.4422 24.474 18.0086 21.9595 18.737 19.4017C19.3092 17.3902 20.4624 15.8382 21.6676 15.3179H21.6763C22.0404 15.1619 22.4133 15.1012 22.7688 15.1532C22.8555 15.1532 22.9335 15.1705 23.0115 15.1965Z" stroke="#BE3D3D" stroke-width="1.4" stroke-miterlimit="10" stroke-linecap="round" stroke-linejoin="round"/>
<path d="M20.341 13.7832C20.8006 14.2688 21.2515 14.7804 21.6763 15.3093H21.6676C20.4711 15.8295 19.3179 17.3815 18.737 19.3931C18.0087 21.9509 18.4422 24.4653 19.7341 25.289C18.8237 25.5405 17.3497 25.7486 14.948 25.7486C13.0925 25.7486 11.4538 25.5145 10.0752 25.1937C11.2543 24.2832 11.6358 21.8555 10.9335 19.3931C10.3613 17.3815 9.2081 15.8295 8.0029 15.3093C7.97689 15.3006 7.95954 15.2919 7.93353 15.2832C8.33238 14.7543 8.74856 14.2515 9.17342 13.7746" stroke="#BE3D3D" stroke-width="1.4" stroke-miterlimit="10" stroke-linecap="round" stroke-linejoin="round"/>
</svg>
