<svg width="28" height="29" viewBox="0 0 28 29" fill="none" xmlns="http://www.w3.org/2000/svg">
<path d="M27.2629 12.5206C27.2629 16.9433 24.9588 20.1082 21.5258 22.3505C20.5825 22.9691 19.5619 23.4484 18.4794 23.7423C17.6443 23.9742 16.7783 24.0979 15.8814 24.0979H6.98454L1 27.3969V11.5258H5.24227C5.24227 4.21134 10.5 1.34937 15.5 1.00003C22.5825 0.505181 27.2629 5.50003 27.2629 12.5206Z" stroke="#BE3D3D" stroke-width="1.4" stroke-miterlimit="10" stroke-linecap="round" stroke-linejoin="round"/>
<path d="M16 17C18.7614 17 21 14.7614 21 12C21 9.23858 18.7614 7 16 7C13.2386 7 11 9.23858 11 12C11 14.7614 13.2386 17 16 17Z" stroke="#BE3D3D" stroke-width="1.4" stroke-miterlimit="10" stroke-linecap="round" stroke-linejoin="round"/>
</svg>
